PathFileType	4	(X/Y/Z)
DataRate	CameraRate	NumFrames	NumMarkers	Units	OrigDataRate	OrigDataStartFrame	OrigNumFrames	
	120.0	120.0	4	39	mm	120.0	174	231
Frame#	Time	midhip	hip_r	hip_l	knee_r	knee_l	ankle_r	ankle_l	midasis	asis_r	asis_l	psis_r	psis_l	epicondLat_r	epicondLat_l	epicondMed_r	epicondMed_l	malleolusLat_r	malleolusLat_l	malleolusMedv_r	malleolusMedv_l	heel_r	heel_l	sternalnotch	xyphoidprocess	neck	subclavicle_r	subclavicle_l	toe_r	toe_l	thighwand_r	thighwand_l	upperleg1_r	upperleg1_l	upperleg2_r	upperleg2_l	shankwand_r	shankwand_l	lowerleg1_r	lowerleg1_l
	X1	Y1	Z1	X2	Y2	Z2	X3	Y3	Z3	X4	Y4	Z4	X5	Y5	Z5	X6	Y6	Z6	X7	Y7	Z7	X8	Y8	Z8	X9	Y9	Z9	X10	Y10	Z10	X11	Y11	Z11	X12	Y12	Z12	X13	Y13	Z13	X14	Y14	Z14	X15	Y15	Z15	X16	Y16	Z16	X17	Y17	Z17	X18	Y18	Z18	X19	Y19	Z19	X20	Y20	Z20	X21	Y21	Z21	X22	Y22	Z22	X23	Y23	Z23	X24	Y24	Z24	X25	Y25	Z25	X26	Y26	Z26	X27	Y27	Z27	X28	Y28	Z28	X29	Y29	Z29	X30	Y30	Z30	X31	Y31	Z31	X32	Y32	Z32	X33	Y33	Z33	X34	Y34	Z34	X35	Y35	Z35	X36	Y36	Z36	X37	Y37	Z37	X38	Y38	Z38	X39	Y39	Z39

	174	1.45000	1431.651	636.880	-344.353	1438.965	645.459	-290.116	1448.439	646.214	-407.176	1419.085	343.183	-275.158	1411.827	345.740	-408.037	1389.413	54.412	-247.010	1402.792	57.231	-428.323	1504.208	691.792	-343.454	1497.177	691.232	-256.568	1511.239	692.352	-430.339	1374.574	749.489	-308.011	1380.650	750.347	-393.574	1413.243	345.822	-229.607	1403.738	346.861	-455.337	1421.281	341.652	-321.804	1408.322	344.863	-363.031	1379.612	58.516	-215.239	1389.301	59.725	-457.785	1394.916	52.332	-274.075	1412.919	53.273	-397.346	1348.106	37.573	-263.751	1352.641	38.327	-418.363	1447.917	1024.908	-336.599	1540.188	916.883	-335.452	1367.835	1042.180	-345.333	1464.295	1018.914	-298.526	1469.708	1018.320	-387.770	1476.233	41.117	-228.482	1488.659	39.073	-458.234	1544.647	426.238	-282.606	1464.395	417.111	-513.889	1466.894	484.777	-248.228	1472.888	478.098	-433.409	1452.506	398.701	-246.567	1462.876	394.434	-415.518	1402.857	148.826	-153.292	1501.300	165.909	-409.662	1402.195	200.986	-221.102	1435.683	221.385	-420.291
	175	1.45833	1431.500	636.843	-344.687	1438.831	645.429	-290.472	1448.286	646.168	-407.533	1419.073	343.190	-275.508	1411.479	345.703	-408.089	1389.441	54.419	-247.121	1402.796	57.206	-428.321	1504.051	691.773	-343.826	1497.036	691.224	-256.963	1511.067	692.321	-430.690	1374.405	749.435	-308.372	1380.439	750.298	-393.914	1413.199	345.829	-229.961	1403.317	346.790	-455.377	1421.347	341.600	-322.427	1408.119	344.855	-363.139	1379.619	58.549	-215.361	1389.258	59.678	-457.763	1394.939	52.266	-274.158	1412.921	53.217	-397.352	1348.121	37.538	-263.858	1352.627	38.279	-418.343	1448.034	1024.851	-336.899	1540.163	916.703	-335.777	1367.910	1042.251	-345.722	1464.381	1018.808	-298.797	1469.847	1018.271	-388.086	1476.247	41.109	-228.511	1488.648	39.061	-458.270	1544.552	426.182	-282.934	1463.938	417.031	-514.117	1466.754	484.642	-248.498	1472.550	478.030	-433.780	1452.448	398.483	-247.039	1462.575	394.361	-415.772	1402.830	148.889	-153.476	1501.174	166.014	-409.724	1402.212	200.950	-221.304	1435.474	221.360	-420.353
	176	1.46667	1431.373	636.805	-345.009	1438.697	645.420	-290.813	1448.128	646.125	-407.876	1419.051	343.192	-275.851	1411.175	345.670	-408.168	1389.443	54.434	-247.231	1402.792	57.185	-428.331	1503.881	691.783	-344.196	1496.883	691.260	-257.340	1510.878	692.307	-431.051	1374.227	749.365	-308.726	1380.220	750.230	-394.239	1413.167	345.829	-230.306	1402.945	346.728	-455.445	1421.296	341.612	-322.911	1408.117	344.770	-363.329	1379.616	58.589	-215.475	1389.210	59.636	-457.755	1394.949	52.206	-274.225	1412.905	53.170	-397.365	1348.150	37.494	-263.976	1352.612	38.227	-418.337	1448.155	1024.843	-337.139	1540.189	916.615	-336.042	1368.037	1042.316	-346.062	1464.509	1018.789	-299.018	1469.945	1018.240	-388.358	1476.259	41.111	-228.541	1488.630	39.048	-458.311	1544.429	426.147	-283.192	1463.493	416.954	-514.346	1466.686	484.562	-248.726	1472.206	477.991	-434.153	1452.359	398.335	-247.415	1462.389	394.353	-416.106	1402.879	148.958	-153.658	1501.054	166.119	-409.803	1402.234	200.932	-221.514	1435.285	221.373	-420.417
	177	1.47500	1431.263	636.778	-345.322	1438.560	645.440	-291.137	1447.964	646.095	-408.203	1419.010	343.200	-276.183	1410.917	345.650	-408.273	1389.420	54.466	-247.344	1402.777	57.174	-428.350	1503.695	691.828	-344.558	1496.718	691.342	-257.696	1510.673	692.313	-431.421	1374.043	749.296	-309.071	1379.997	750.154	-394.556	1413.134	345.834	-230.636	1402.634	346.682	-455.542	1421.196	341.658	-323.266	1407.887	344.776	-363.575	1379.600	58.644	-215.589	1389.162	59.605	-457.760	1394.969	52.182	-274.281	1412.861	53.157	-397.371	1348.189	37.450	-264.103	1352.598	38.176	-418.342	1448.228	1024.879	-337.351	1540.220	916.615	-336.194	1368.155	1042.362	-346.414	1464.618	1018.871	-299.256	1469.965	1018.196	-388.565	1476.268	41.126	-228.572	1488.608	39.037	-458.353	1544.285	426.150	-283.381	1463.064	416.873	-514.575	1466.657	484.524	-248.937	1471.889	477.974	-434.484	1452.265	398.280	-247.706	1462.095	394.370	-416.427	1402.983	149.046	-153.843	1500.943	166.229	-409.894	1402.242	200.969	-221.719	1435.103	221.442	-420.488
